<svg id="Layer_1" data-name="Layer 1" xmlns="http://www.w3.org/2000/svg" viewBox="0 0 430 125.87"><defs><style>.cls-1{fill:#070706;}</style></defs><path class="cls-1" d="M34.88,17.46q9.76,0,15.94,6.32v-1.4q0-3.91,3.08-3.92,3.39,0,3.39,4.32v.6c0,.14-.1,1.14-.3,3a64.4,64.4,0,0,0-.3,6.72c0,.34.07,1.41.2,3.21l.3,4a7.43,7.43,0,0,1,.1,1.41q0,4.82-3.69,4.81c-2.58,0-3.88-1.33-3.88-4V42l.2-2.71c.07-.93.1-1.67.1-2.21a11.69,11.69,0,0,0-4-9.43q-4-3.4-11.11-3.41-6.47,0-10.3,3.21a10.67,10.67,0,0,0-3.84,8.63,9.9,9.9,0,0,0,5.68,9.33q3.18,1.61,11.15,2.91,11.85,1.91,16.23,5.22,6.59,4.91,6.58,13.94a19.51,19.51,0,0,1-6.71,15.35Q47,88.79,36.33,88.79q-11.32,0-18.77-7.22v1.48A11.45,11.45,0,0,1,18,85.13q0,3.66-3.67,3.66c-2.66,0-4-1.41-4-4.21a1.13,1.13,0,0,1,.29-.81L11,78.56c.23-2.61.34-4.28.34-5a48,48,0,0,0-.55-6,49.4,49.4,0,0,1-.54-6q0-4.52,3.78-4.51T18,61.52v4.13q0,7.56,4.77,12t12.91,4.43q7.54,0,12-3.61a12,12,0,0,0,4.47-9.83q0-9.54-12-11.64l-5.68-1a62.13,62.13,0,0,1-13.14-3.51,15.12,15.12,0,0,1-6.82-6A16.86,16.86,0,0,1,12,37.32,18.07,18.07,0,0,1,18.35,23Q24.73,17.46,34.88,17.46Z" transform="translate(-10.29 -17.46)"/><path class="cls-1" d="M98.42,88.79q-13.24,0-21-9.63T69.74,53.08q0-16.66,7.76-26.14t21.41-9.48q13.05,0,20.77,9.23t7.72,25q0,17.05-7.82,27.09T98.42,88.79Zm.2-64.11q-9.57,0-14.84,7.43T78.5,53q0,13.64,5.28,21.11a17,17,0,0,0,14.74,7.48,17,17,0,0,0,14.68-7.78q5.43-7.77,5.43-21.12T113.45,32Q108.28,24.69,98.62,24.68Z" transform="translate(-10.29 -17.46)"/><path class="cls-1" d="M164.84,17.46a22.21,22.21,0,0,1,18,8.53V23.73a4.72,4.72,0,0,1-.2-.72c-.13-1.51-.19-2.19-.19-2.06,0-2.32,1-3.49,3.09-3.49s3.28,1.41,3.28,4.21c0,.54-.07,2.15-.2,4.82-.4,3.35-.6,5.65-.6,6.92a47.26,47.26,0,0,0,.34,5.52l.46,3.81v1q0,4.52-3.59,4.51c-2.59,0-3.85-1.42-3.78-4.28V40.4A14.81,14.81,0,0,0,177,28.76q-4.67-4.47-12.22-4.48a18,18,0,0,0-15.39,7.63q-5.56,7.62-5.56,21.07,0,13.74,5.72,21.41t16,7.68a18.75,18.75,0,0,0,10-2.71,14.8,14.8,0,0,0,6.23-7.12A21,21,0,0,0,183,64.41q0-4.6,3.79-4.61,4.08,0,4.08,4.61,0,10.74-7.37,17.56t-19,6.82Q151,88.79,143,79.26t-8-25.38q0-16.35,8.22-26.39T164.84,17.46Z" transform="translate(-10.29 -17.46)"/><path class="cls-1" d="M209.45,33q0-7.42-5.08-7.42a7.86,7.86,0,0,0-2.09.2,15,15,0,0,1-2.69.3,2.92,2.92,0,0,1-2.19-.95,3.35,3.35,0,0,1-.89-2.36q0-3.51,4.38-3.51a10.66,10.66,0,0,1,1.39.1l5.28.7a45.91,45.91,0,0,0,6.17.4,49.7,49.7,0,0,0,6.78-.5l4.48-.6a10.66,10.66,0,0,1,1.39-.1q4.38,0,4.38,3.51a3.35,3.35,0,0,1-.89,2.36,2.92,2.92,0,0,1-2.19.95,16.26,16.26,0,0,1-2.69-.3,7.86,7.86,0,0,0-2.09-.2q-5.09,0-5.08,7.42V73.24q0,7.53,5.08,7.52a13.54,13.54,0,0,0,2.09-.2,19.69,19.69,0,0,1,2.69-.3q3.07,0,3.08,3.21,0,3.61-4.38,3.61h-.7A3.18,3.18,0,0,0,225,87l-5.18-.8a35.49,35.49,0,0,0-5.48-.4,50.49,50.49,0,0,0-7.47.5l-4.58.7a5.32,5.32,0,0,0-.7.1h-.79c-2.86,0-4.28-1.2-4.28-3.61,0-2.14,1-3.21,3.08-3.21.33,0,1.23.07,2.69.2a7.93,7.93,0,0,0,2.09.3q5.08,0,5.08-7.52Z" transform="translate(-10.29 -17.46)"/><path class="cls-1" d="M247.59,33q0-7.42-5.08-7.42a7.86,7.86,0,0,0-2.09.2,15,15,0,0,1-2.69.3,2.92,2.92,0,0,1-2.19-.95,3.3,3.3,0,0,1-.89-2.36q0-3.51,4.16-3.51l1.49.1q14.89,1,13.9,1h1l23.91-.7c.47,0,2.19-.1,5.17-.3,1.05-.07,2-.1,2.87-.1,3.44,0,5.17,1.54,5.17,4.61,0,.54-.1,2.24-.29,5.12q-.21,3.21-.21,5.92c0,2.34.05,4,.16,4.91a43.1,43.1,0,0,1,.34,4.32c0,2.54-1.19,3.81-3.54,3.81s-3.54-1.77-3.54-5.32V37.43q0-8.43-3.48-9.94-2.6-1.09-13.35-1.1a60.92,60.92,0,0,0-8.36.3c-2.86.74-4.28,2.74-4.28,6v10q0,4,1.77,4.62a9.61,9.61,0,0,0,2.35.2h4c4.12,0,6.19-1.44,6.19-4.32a26.46,26.46,0,0,0-.25-3.11,25.82,25.82,0,0,1-.25-3.41q0-4,3.53-4T276.67,37q0,.81-.64,6.22a69.06,69.06,0,0,0-.55,8.13q0,2,.39,7.12c.07.54.24,1.71.5,3.51a27.74,27.74,0,0,1,.3,3.52c0,2.4-1.19,3.61-3.58,3.61s-3.49-1.41-3.49-4.22a28.87,28.87,0,0,1,.25-3.21,31.16,31.16,0,0,0,.25-3.21q0-4.31-5.68-4.31h-4.48c-1.93,0-3.1.33-3.54,1s-.64,2.11-.64,4.32v6.22c0,1.07,0,2.5.1,4.31.06,2.21.1,3.68.1,4.41q.09,4,1.59,5c.73.47,2.46.7,5.18.7h13.54q5.88,0,8.07-1.75t2.19-6.57q0-1.52-.15-4.47c-.1-2-.15-3.46-.15-4.46q0-4.52,3.54-4.52,3.74,0,3.73,4.62c0,1.2-.05,3-.15,5.51s-.15,4.32-.15,5.52q0,1.41.15,4.17c.1,1.84.15,3.22.15,4.16q0,4.71-4.58,4.71c-.73,0-1.89-.06-3.49-.2-.79-.06-2.25-.1-4.38-.1.46,0-2.12-.06-7.77-.2s-10.52-.2-14.63-.2q-9.37,0-18.33.6a5.15,5.15,0,0,0-.89.1h-.6q-4.19,0-4.18-3.61c0-2.14,1-3.21,3.08-3.21.33,0,1.23.07,2.69.2a7.93,7.93,0,0,0,2.09.3q5.09,0,5.08-7.52Z" transform="translate(-10.29 -17.46)"/><path class="cls-1" d="M335.22,73.34q0,7.53,5.08,7.52a16.43,16.43,0,0,0,2.39-.25,18,18,0,0,1,2.39-.25,3,3,0,0,1,2.24,1,3.08,3.08,0,0,1,.95,2.25q0,3.51-4.48,3.51h-.6a4.91,4.91,0,0,0-.7-.1l-4.88-.7a45.39,45.39,0,0,0-6.27-.4,50.21,50.21,0,0,0-6.67.4l-5,.7a3.35,3.35,0,0,0-.7.1h-.69q-4.4,0-4.39-3.51,0-3.21,3.19-3.21a18,18,0,0,1,2.39.25,16.43,16.43,0,0,0,2.39.25q5,0,5-7.52V32.61q0-7.12-7.27-7.12H316.5q-7.17,0-7.17,7c0,1.67,0,2.81.1,3.41l.4,3.71a23.28,23.28,0,0,1,.1,2.51q0,6.31-3.88,6.32-3.69,0-3.69-4.61c0-.87.07-2.38.2-4.52q.3-4.81.3-6.12c0-1.67-.06-3.41-.17-5.21-.22-3.55-.33-5.05-.33-4.52q0-4.21,3.78-4.21,1.39,0,6.46.3.5,0,8.15.4h11.34c1.32,0,4.87-.06,10.63-.18,1.26,0,3.42-.08,6.47-.26q4.06-.26,6.36-.26,5,0,5,4.11v.2c0,.67-.08,1.91-.25,3.71s-.35,3.75-.55,5.82v1.1c0,1,.1,2.58.3,4.72.27,2.81.4,4.55.4,5.22q0,4.11-3.88,4.11t-3.79-5c0-1.21.1-3,.3-5.39s.3-4.18.3-5.39q0-6.94-7.87-6.95h-2.79q-3.68,0-5.27,1.55c-1.07,1-1.66,2.76-1.8,5.17l-.4,7Z" transform="translate(-10.29 -17.46)"/><path class="cls-1" d="M398.66,66.57V64.65c-.07-1.07-.1-2-.1-2.72L379.24,31a31.78,31.78,0,0,0-2.39-3.52A5,5,0,0,0,373.17,26a3.24,3.24,0,0,0-1.8.4h-1.89q-4.58,0-4.58-3.51t4-3.61a24.61,24.61,0,0,1,4,.4,54.71,54.71,0,0,0,9,.8,70.49,70.49,0,0,0,9.26-.9,25.9,25.9,0,0,1,3.59-.3c2.72,0,4.08,1.13,4.08,3.41S397.13,26,393.88,26H388.4c-.79-.07-1.19.2-1.19.8a1,1,0,0,0,.1.55c.06.1.23.39.49.86L403,54.28,418.48,28.2a3.06,3.06,0,0,0,.5-1.61c0-.6-.44-.9-1.3-.9h-.2l-1.79.3-2.59.24c-1.13.11-2,.16-2.59.16q-4.08,0-4.08-3.56c0-2.37,1.32-3.56,4-3.56a25.9,25.9,0,0,1,3.59.3,69.65,69.65,0,0,0,9.65.8,63,63,0,0,0,9.47-.8,23.14,23.14,0,0,1,3.38-.3c2.52,0,3.79,1.17,3.79,3.51q0,3.21-3.69,3.21a10.2,10.2,0,0,1-2.29-.2,19.26,19.26,0,0,0-2.19-.2A4.81,4.81,0,0,0,427.94,28l-1.5,2.3-19.61,31v4.22q0,10.23.84,12.74t4.23,2.5a17.23,17.23,0,0,0,2.44-.25,19.23,19.23,0,0,1,2.44-.25q3.09,0,3.09,3.21,0,3.61-4.48,3.61h-.6a3.27,3.27,0,0,0-.69-.1l-5.48-.7a48.48,48.48,0,0,0-6.08-.4,45.28,45.28,0,0,0-6.07.4l-5.08.7a3.3,3.3,0,0,0-.6.1h-.69q-4.49,0-4.49-3.51c0-2.2,1.07-3.31,3.19-3.31a17,17,0,0,1,2.34.25,15.52,15.52,0,0,0,2.34.25c2.79,0,4.48-1.77,5.08-5.33Q398.67,74.51,398.66,66.57Z" transform="translate(-10.29 -17.46)"/><path class="cls-1" d="M126,100.54a13.34,13.34,0,0,1,10.82,5.11V104.3a2.48,2.48,0,0,1-.12-.44q-.12-1.35-.12-1.23c0-1.4.62-2.09,1.85-2.09s2,.84,2,2.52c0,.33,0,1.29-.12,2.89a41.75,41.75,0,0,0-.36,4.16,26.87,26.87,0,0,0,.21,3.31l.27,2.28v.61c0,1.8-.72,2.7-2.15,2.7s-2.31-.85-2.27-2.56V114.3a8.87,8.87,0,0,0-2.68-7,10.15,10.15,0,0,0-7.33-2.68,10.8,10.8,0,0,0-9.24,4.57q-3.33,4.58-3.34,12.64,0,8.25,3.44,12.85a12.13,12.13,0,0,0,15.59,3,8.81,8.81,0,0,0,3.74-4.27,12.55,12.55,0,0,0,.72-4.69c0-1.85.75-2.77,2.27-2.77s2.45.92,2.45,2.77a13.73,13.73,0,0,1-4.42,10.53,16.15,16.15,0,0,1-11.42,4.09,15.94,15.94,0,0,1-12.87-5.72Q108,131.9,108,122.39q0-9.83,4.93-15.84A16,16,0,0,1,126,100.54Z" transform="translate(-10.29 -17.46)"/><path class="cls-1" d="M163.3,143.33a15.23,15.23,0,0,1-12.58-5.78q-4.64-5.78-4.63-15.65t4.66-15.68q4.67-5.68,12.84-5.68a15.41,15.41,0,0,1,12.46,5.53q4.63,5.54,4.63,15,0,10.23-4.69,16.25A15.22,15.22,0,0,1,163.3,143.33Zm.12-38.46a10.29,10.29,0,0,0-8.91,4.45q-3.16,4.46-3.16,12.52t3.16,12.67a10.8,10.8,0,0,0,17.66-.18q3.26-4.67,3.26-12.67t-3.11-12.43A10.26,10.26,0,0,0,163.42,104.87Z" transform="translate(-10.29 -17.46)"/><path class="cls-1" d="M191.74,124.49V109.86c0-3-1-4.45-3-4.45a3.27,3.27,0,0,0-1.18.17,6.27,6.27,0,0,1-1.54.25,1.68,1.68,0,0,1-1.31-.59,2.09,2.09,0,0,1-.53-1.45c0-1.45.83-2.17,2.51-2.17.2,0,.5,0,.89.06l4.13.42a51,51,0,0,0,5.2.24q1.55,0,6.69-.18l6.87-.24c.91,0,2-.1,3.22-.18a12.74,12.74,0,0,1,1.8-.12q3.16,0,3.16,2.83a29.23,29.23,0,0,1-.29,3.31,27.47,27.47,0,0,0-.3,3.37c0,.64,0,1.44.12,2.41s.12,1.84.12,2.64c0,1.65-.72,2.47-2.16,2.47s-2.21-.94-2.21-2.81q0-.84.09-2.58t.09-2.58c0-2.11-.59-3.45-1.79-4s-4-.84-8.48-.84q-5.69,0-6.46,1c-.4.52-.59,2.36-.59,5.53v4.46c0,1.12.14,1.81.44,2.07a4.55,4.55,0,0,0,2.48.39h2q3.89,0,3.89-2.88a14.61,14.61,0,0,0-.15-1.81,14.41,14.41,0,0,1-.15-1.75c0-1.52.72-2.28,2.15-2.28s2,.88,2,2.65a12.32,12.32,0,0,1-.14,1.44l-.41,3.25a27.22,27.22,0,0,0-.28,3.25,40.63,40.63,0,0,0,.62,6.26,14.73,14.73,0,0,1,.21,2.41c0,1.56-.71,2.35-2.15,2.35s-2-.85-2-2.53c0-.4,0-1,.09-1.81s.09-1.4.09-1.8c0-1.25-.34-2-1-2.41a5.81,5.81,0,0,0-2.75-.42H199.8a4.31,4.31,0,0,0-2.57.47c-.32.32-.47,1.2-.47,2.63v7.11a7.8,7.8,0,0,0,.62,3.79,2.58,2.58,0,0,0,2.36,1h2.63c1.83,0,2.75.69,2.75,2a1.94,1.94,0,0,1-.63,1.45,2.11,2.11,0,0,1-1.52.6,19.19,19.19,0,0,1-2.81-.3,38.08,38.08,0,0,0-6-.42,31.62,31.62,0,0,0-4.6.36l-2,.3a1.62,1.62,0,0,0-.41.06h-.36c-1.76,0-2.63-.72-2.63-2.17,0-1.28.62-1.93,1.85-1.93.16,0,.68,0,1.55.13a4.79,4.79,0,0,0,1.26.18,2.43,2.43,0,0,0,2.24-1,7.34,7.34,0,0,0,.69-3.52Z" transform="translate(-10.29 -17.46)"/><path class="cls-1" d="M228.72,124.49V109.86c0-3-1-4.45-3-4.45a3.34,3.34,0,0,0-1.19.17,6.13,6.13,0,0,1-1.54.25,1.66,1.66,0,0,1-1.3-.59,2.05,2.05,0,0,1-.54-1.45c0-1.45.84-2.17,2.51-2.17q.3,0,.9.06l4.12.42a51.1,51.1,0,0,0,5.2.24c1,0,3.27-.06,6.69-.18l6.87-.24c.92,0,2-.1,3.23-.18a12.6,12.6,0,0,1,1.79-.12q3.17,0,3.17,2.83a27.53,27.53,0,0,1-.3,3.31,27.47,27.47,0,0,0-.3,3.37c0,.64,0,1.44.12,2.41s.12,1.84.12,2.64c0,1.65-.72,2.47-2.15,2.47s-2.21-.94-2.21-2.81q0-.84.09-2.58t.09-2.58c0-2.11-.6-3.45-1.79-4s-4-.84-8.49-.84q-5.67,0-6.45,1-.6.78-.6,5.53v4.46q0,1.68.45,2.07a4.53,4.53,0,0,0,2.48.39h2q3.88,0,3.88-2.88a14.61,14.61,0,0,0-.15-1.81,14.41,14.41,0,0,1-.15-1.75q0-2.28,2.16-2.28c1.35,0,2,.88,2,2.65,0,.24,0,.72-.14,1.44l-.42,3.25a27.22,27.22,0,0,0-.28,3.25,39.6,39.6,0,0,0,.63,6.26,14.73,14.73,0,0,1,.21,2.41c0,1.56-.72,2.35-2.15,2.35s-2-.85-2-2.53c0-.4,0-1,.09-1.81s.09-1.4.09-1.8c0-1.25-.33-2-1-2.41a5.87,5.87,0,0,0-2.75-.42h-1.85a4.29,4.29,0,0,0-2.57.47c-.32.32-.48,1.2-.48,2.63v7.11a7.77,7.77,0,0,0,.63,3.79,2.57,2.57,0,0,0,2.36,1h2.63c1.83,0,2.75.69,2.75,2a1.94,1.94,0,0,1-.63,1.45,2.14,2.14,0,0,1-1.53.6,19.08,19.08,0,0,1-2.8-.3,38.3,38.3,0,0,0-6-.42,31.73,31.73,0,0,0-4.6.36l-2,.3a1.76,1.76,0,0,0-.42.06h-.36c-1.75,0-2.63-.72-2.63-2.17a1.68,1.68,0,0,1,1.86-1.93c.15,0,.67,0,1.55.13a4.72,4.72,0,0,0,1.25.18,2.41,2.41,0,0,0,2.24-1,7.34,7.34,0,0,0,.69-3.52Z" transform="translate(-10.29 -17.46)"/><path class="cls-1" d="M265.89,109.86c0-3-1-4.45-3.05-4.45a4.92,4.92,0,0,0-1.26.12,8.85,8.85,0,0,1-1.61.18,1.71,1.71,0,0,1-1.31-.57,2,2,0,0,1-.54-1.42c0-1.4.83-2.1,2.5-2.1l.89.06c6,.4,8.73.6,8.34.6h.59l14.35-.42c.28,0,1.31-.06,3.1-.18.64,0,1.21-.06,1.73-.06,2.06,0,3.09.92,3.09,2.77,0,.32,0,1.34-.17,3.07-.08,1.28-.13,2.46-.13,3.55,0,1.4,0,2.39.1,2.95a23.19,23.19,0,0,1,.2,2.59c0,1.52-.7,2.28-2.12,2.28s-2.12-1.06-2.12-3.19v-3.13c0-3.37-.7-5.35-2.09-6-1-.44-3.7-.66-8-.66a36.63,36.63,0,0,0-5,.18,3.31,3.31,0,0,0-2.57,3.61v6c0,1.61.36,2.53,1.07,2.77a5.64,5.64,0,0,0,1.41.12h2.42q3.7,0,3.71-2.59a14.86,14.86,0,0,0-.15-1.86,16,16,0,0,1-.15-2c0-1.6.71-2.41,2.12-2.41s2.12.87,2.12,2.59c0,.32-.13,1.57-.38,3.73a42,42,0,0,0-.33,4.88c0,.8.07,2.23.23,4.27,0,.33.14,1,.3,2.11a16.53,16.53,0,0,1,.18,2.11,1.9,1.9,0,0,1-2.15,2.16c-1.39,0-2.09-.84-2.09-2.52a17.74,17.74,0,0,1,.15-1.93,17.57,17.57,0,0,0,.15-1.93c0-1.72-1.14-2.58-3.41-2.58h-2.69c-1.15,0-1.86.2-2.12.6a5.5,5.5,0,0,0-.39,2.59v3.73c0,.64,0,1.5.06,2.59q.06,2,.06,2.64c0,1.61.36,2.61,1,3a6.83,6.83,0,0,0,3.11.43h8.12c2.35,0,4-.36,4.84-1.06s1.32-2,1.32-3.94c0-.6,0-1.5-.09-2.68s-.09-2.08-.09-2.68c0-1.8.7-2.71,2.12-2.71s2.24.93,2.24,2.77c0,.72,0,1.83-.09,3.31s-.09,2.59-.09,3.31,0,1.4.09,2.5.09,1.94.09,2.5c0,1.89-.92,2.83-2.75,2.83-.44,0-1.13,0-2.09-.12-.48,0-1.35-.06-2.63-.06L281.3,142q-5.07-.12-8.78-.12c-3.75,0-7.41.12-11,.36a2.61,2.61,0,0,0-.53.06h-.36c-1.68,0-2.51-.72-2.51-2.17,0-1.28.61-1.93,1.85-1.93.2,0,.74,0,1.61.13a4.79,4.79,0,0,0,1.26.18q3,0,3.05-4.52Z" transform="translate(-10.29 -17.46)"/><path class="cls-1" d="M306.1,109.86c0-3-1-4.45-3.05-4.45a4.92,4.92,0,0,0-1.26.12,8.85,8.85,0,0,1-1.61.18,1.71,1.71,0,0,1-1.31-.57,2,2,0,0,1-.54-1.42c0-1.4.83-2.1,2.5-2.1l.89.06c6,.4,8.73.6,8.34.6h.59l14.35-.42c.28,0,1.31-.06,3.1-.18.64,0,1.21-.06,1.73-.06,2.06,0,3.09.92,3.09,2.77,0,.32-.05,1.34-.17,3.07-.08,1.28-.12,2.46-.12,3.55a28.19,28.19,0,0,0,.1,2.95,25.24,25.24,0,0,1,.19,2.59c0,1.52-.7,2.28-2.12,2.28s-2.12-1.06-2.12-3.19v-3.13c0-3.37-.7-5.35-2.09-6-1-.44-3.7-.66-8-.66a36.74,36.74,0,0,0-5,.18,3.3,3.3,0,0,0-2.56,3.61v6c0,1.61.35,2.53,1.06,2.77a5.64,5.64,0,0,0,1.41.12h2.42q3.71,0,3.71-2.59a14.86,14.86,0,0,0-.15-1.86,16,16,0,0,1-.15-2c0-1.6.71-2.41,2.12-2.41s2.12.87,2.12,2.59c0,.32-.13,1.57-.38,3.73a42,42,0,0,0-.33,4.88c0,.8.08,2.23.24,4.27,0,.33.13,1,.29,2.11a16.53,16.53,0,0,1,.18,2.11,1.9,1.9,0,0,1-2.15,2.16c-1.39,0-2.09-.84-2.09-2.52a17.74,17.74,0,0,1,.15-1.93,17.57,17.57,0,0,0,.15-1.93c0-1.72-1.14-2.58-3.41-2.58h-2.68q-1.74,0-2.13.6a5.53,5.53,0,0,0-.38,2.59v3.73c0,.64,0,1.5.06,2.59,0,1.32.06,2.2.06,2.64,0,1.61.35,2.61.95,3a6.83,6.83,0,0,0,3.11.43h8.12c2.35,0,4-.36,4.84-1.06s1.32-2,1.32-3.94c0-.6,0-1.5-.09-2.68s-.09-2.08-.09-2.68c0-1.8.71-2.71,2.12-2.71s2.24.93,2.24,2.77c0,.72,0,1.83-.09,3.31s-.09,2.59-.09,3.31,0,1.4.09,2.5.09,1.94.09,2.5c0,1.89-.92,2.83-2.75,2.83-.44,0-1.13,0-2.09-.12-.48,0-1.35-.06-2.63-.06l-4.66-.12q-5.07-.12-8.78-.12c-3.75,0-7.41.12-11,.36a2.77,2.77,0,0,0-.53.06h-.36c-1.67,0-2.51-.72-2.51-2.17,0-1.28.62-1.93,1.85-1.93.2,0,.74,0,1.61.13a4.79,4.79,0,0,0,1.26.18q3,0,3.05-4.52Z" transform="translate(-10.29 -17.46)"/></svg>