<svg xmlns="http://www.w3.org/2000/svg" viewBox="0 0 433.18 125.87"><defs><style>.cls-1{fill:#070706;}</style></defs><g id="Layer_2" data-name="Layer 2"><g id="Layer_1-2" data-name="Layer 1"><path class="cls-1" d="M24.78,0q9.82,0,16,6.32V4.92Q40.83,1,43.94,1q3.41,0,3.41,4.32v.6c0,.13-.1,1.14-.3,3a64.4,64.4,0,0,0-.3,6.72c0,.34.06,1.4.2,3.21l.3,4a7.43,7.43,0,0,1,.1,1.41q0,4.81-3.71,4.81c-2.61,0-3.91-1.33-3.91-4v-.5l.2-2.71c.06-.94.1-1.67.1-2.21A11.66,11.66,0,0,0,36,10.23Q31.91,6.82,24.78,6.82,18.26,6.82,14.4,10a10.64,10.64,0,0,0-3.87,8.63A9.9,9.9,0,0,0,16.25,28q3.21,1.61,11.24,2.91,11.94,1.91,16.35,5.22Q50.46,41,50.46,50.06A19.44,19.44,0,0,1,43.7,65.41Q37,71.32,26.24,71.33q-11.41,0-18.92-7.23v1.49a10.91,10.91,0,0,1,.4,2.08q0,3.66-3.7,3.66-4,0-4-4.22a1.09,1.09,0,0,1,.3-.8l.46-5.22c.23-2.6.34-4.27.34-5a48,48,0,0,0-.55-6A47.88,47.88,0,0,1,0,44q0-4.51,3.81-4.51t3.91,4.53v4.13q0,7.55,4.81,12t13,4.43q7.61,0,12.1-3.62a11.91,11.91,0,0,0,4.5-9.83q0-9.52-12-11.63l-5.72-1A62.79,62.79,0,0,1,11.14,35a15.26,15.26,0,0,1-6.88-6,16.91,16.91,0,0,1-2.55-9.18A18,18,0,0,1,8.13,5.52Q14.55,0,24.78,0Z"/><path class="cls-1" d="M88.78,71.33q-13.34,0-21.12-9.63T59.89,35.61q0-16.65,7.83-26.13T89.28,0q13.14,0,20.92,9.23t7.78,25q0,17.06-7.88,27.09T88.78,71.33ZM89,7.22q-9.63,0-14.94,7.43T68.72,35.51q0,13.65,5.32,21.12A17.18,17.18,0,0,0,88.88,64.1a17.19,17.19,0,0,0,14.8-7.77q5.46-7.77,5.47-21.12T103.93,14.5Q98.71,7.23,89,7.22Z"/><path class="cls-1" d="M155.7,0a22.41,22.41,0,0,1,18.15,8.53V6.27a4.72,4.72,0,0,1-.2-.72c-.13-1.51-.2-2.19-.2-2.06q0-3.49,3.12-3.49,3.3,0,3.3,4.21c0,.54-.06,2.14-.2,4.82q-.6,5-.6,6.92a45.17,45.17,0,0,0,.34,5.52l.46,3.81v1q0,4.51-3.61,4.52-3.91,0-3.81-4.28V22.94A14.75,14.75,0,0,0,168,11.3q-4.71-4.49-12.31-4.48-9.9,0-15.51,7.63t-5.6,21.06q0,13.76,5.77,21.42t16.1,7.68a19.12,19.12,0,0,0,10.08-2.71,14.76,14.76,0,0,0,6.27-7.13A20.87,20.87,0,0,0,174,47q0-4.62,3.82-4.62,4.11,0,4.11,4.62,0,10.74-7.42,17.56t-19.17,6.82q-13.53,0-21.61-9.53T125.6,36.42q0-16.35,8.28-26.39T155.7,0Z"/><path class="cls-1" d="M200.64,15.55q0-7.43-5.12-7.42a7.89,7.89,0,0,0-2.1.2,15.24,15.24,0,0,1-2.71.3,2.92,2.92,0,0,1-2.21-1,3.29,3.29,0,0,1-.9-2.35q0-3.51,4.41-3.51a11.06,11.06,0,0,1,1.41.1l5.31.7A46.66,46.66,0,0,0,205,3a51.93,51.93,0,0,0,6.82-.5l4.52-.6a10.8,10.8,0,0,1,1.4-.1q4.42,0,4.42,3.51a3.25,3.25,0,0,1-.91,2.35,2.9,2.9,0,0,1-2.2,1,16.57,16.57,0,0,1-2.71-.3,8,8,0,0,0-2.11-.2q-5.12,0-5.11,7.42V55.78q0,7.52,5.11,7.52a13.65,13.65,0,0,0,2.11-.2,20.06,20.06,0,0,1,2.71-.3q3.1,0,3.11,3.21,0,3.61-4.42,3.61H217a2.8,2.8,0,0,0-.7-.1l-5.22-.8a36,36,0,0,0-5.52-.4,51.3,51.3,0,0,0-7.52.5l-4.61.7a4,4,0,0,0-.71.1h-.8c-2.88,0-4.31-1.2-4.31-3.61,0-2.14,1-3.21,3.11-3.21.33,0,1.23.07,2.71.2a7.94,7.94,0,0,0,2.1.3q5.11,0,5.12-7.52Z"/><path class="cls-1" d="M239.06,15.55q0-7.43-5.12-7.42a7.89,7.89,0,0,0-2.1.2,15.24,15.24,0,0,1-2.71.3,2.92,2.92,0,0,1-2.21-1,3.29,3.29,0,0,1-.9-2.35q0-3.51,4.2-3.51l1.5.1q15,1,14,1h1l24.1-.7c.46,0,2.2-.1,5.2-.3,1.06-.07,2-.1,2.89-.1q5.21,0,5.2,4.61c0,.54-.09,2.24-.28,5.12q-.22,3.21-.22,5.92a48.39,48.39,0,0,0,.17,4.91,42.38,42.38,0,0,1,.33,4.32c0,2.54-1.18,3.81-3.56,3.81S277,28.73,277,25.18V20q0-8.42-3.51-9.93Q270.86,8.94,260,8.93a62,62,0,0,0-8.43.3c-2.88.74-4.31,2.74-4.31,6v10c0,2.68.59,4.21,1.78,4.62a9.8,9.8,0,0,0,2.37.2h4.06q6.22,0,6.23-4.32a24.32,24.32,0,0,0-.25-3.11,25.94,25.94,0,0,1-.25-3.41q0-4,3.56-4c2.38,0,3.56,1.44,3.56,4.31,0,.54-.21,2.61-.65,6.22a69.06,69.06,0,0,0-.55,8.13q0,2,.4,7.12c.07.54.23,1.71.5,3.51a27.47,27.47,0,0,1,.3,3.51q0,3.62-3.61,3.61t-3.51-4.21a28.87,28.87,0,0,1,.25-3.21,28.53,28.53,0,0,0,.25-3.21c0-2.87-1.9-4.31-5.72-4.31H251.5c-1.94,0-3.13.33-3.56,1s-.65,2.11-.65,4.31v6.22c0,1.07,0,2.51.1,4.32.06,2.2.1,3.68.1,4.41.06,2.68.6,4.35,1.6,5,.74.47,2.48.7,5.22.7H268c3.95,0,6.66-.58,8.13-1.76s2.21-3.36,2.21-6.57c0-1-.06-2.49-.16-4.46s-.15-3.46-.15-4.47c0-3,1.19-4.51,3.57-4.51s3.76,1.54,3.76,4.62c0,1.2-.05,3-.15,5.51s-.15,4.32-.15,5.52c0,.94.05,2.33.15,4.16s.15,3.23.15,4.17q0,4.71-4.62,4.71c-.73,0-1.9-.07-3.51-.2-.8-.07-2.27-.1-4.41-.1.46,0-2.14-.07-7.83-.2s-10.6-.2-14.74-.2q-9.44,0-18.46.6a4.5,4.5,0,0,0-.91.1h-.6Q226,69.62,226,66c0-2.14,1-3.21,3.11-3.21.33,0,1.24.07,2.71.2a7.94,7.94,0,0,0,2.1.3q5.12,0,5.12-7.52Z"/><path class="cls-1" d="M327.34,55.88q0,7.51,5.12,7.52a16.91,16.91,0,0,0,2.41-.25,18.11,18.11,0,0,1,2.4-.25,3.24,3.24,0,0,1,3.21,3.21q0,3.51-4.51,3.51h-.6a4,4,0,0,0-.71-.1l-4.91-.7a44.61,44.61,0,0,0-6.32-.4,49.35,49.35,0,0,0-6.72.4l-5,.7a2.8,2.8,0,0,0-.7.1h-.7q-4.43,0-4.42-3.51,0-3.21,3.21-3.21a18.22,18.22,0,0,1,2.41.25,16.64,16.64,0,0,0,2.41.25q5,0,5-7.52V15.15q0-7.12-7.32-7.12h-3.11q-7.22,0-7.22,7c0,1.67,0,2.81.1,3.41l.4,3.71a23.28,23.28,0,0,1,.1,2.51Q301.86,31,298,31c-2.48,0-3.71-1.54-3.71-4.62,0-.86.06-2.37.2-4.51q.3-4.82.3-6.12c0-1.67-.06-3.41-.17-5.22-.22-3.54-.33-5-.33-4.51,0-2.81,1.26-4.21,3.8-4.21q1.41,0,6.51.3.49,0,8.21.4h11.42q2,0,10.72-.18,1.89,0,6.5-.26c2.74-.18,4.88-.26,6.41-.26q5,0,5,4.11v.2c0,.67-.08,1.91-.25,3.71s-.35,3.75-.55,5.82v1.1c0,1,.1,2.58.3,4.72.27,2.81.4,4.55.4,5.22q0,4.11-3.91,4.11t-3.81-5c0-1.21.1-3,.3-5.39s.3-4.18.3-5.39q0-7-7.93-7h-2.8c-2.48,0-4.25.51-5.32,1.55s-1.67,2.76-1.81,5.17l-.4,7Z"/><path class="cls-1" d="M391.25,49.11V47.19c-.07-1.07-.1-2-.1-2.72L371.68,13.56A29.65,29.65,0,0,0,369.27,10a5,5,0,0,0-3.71-1.51,3.24,3.24,0,0,0-1.8.4h-1.91c-3.08,0-4.61-1.17-4.61-3.51s1.33-3.61,4-3.61a24.83,24.83,0,0,1,4,.4,55.62,55.62,0,0,0,9,.8,71.62,71.62,0,0,0,9.33-.9,26.28,26.28,0,0,1,3.61-.3c2.74,0,4.12,1.13,4.12,3.4s-1.64,3.32-4.92,3.32h-5.52c-.8-.07-1.2.2-1.2.8a1,1,0,0,0,.1.55l.5.85,15.35,26.09,15.55-26.09a3,3,0,0,0,.5-1.6c0-.6-.44-.9-1.3-.9h-.2l-1.81.3-2.61.24c-1.14.11-2,.16-2.61.16q-4.11,0-4.11-3.56c0-2.38,1.34-3.56,4-3.56a26,26,0,0,1,3.61.3,71,71,0,0,0,9.74.8,63.82,63.82,0,0,0,9.53-.8,23.51,23.51,0,0,1,3.41-.3q3.81,0,3.81,3.51,0,3.21-3.71,3.21a10.28,10.28,0,0,1-2.31-.2,19.69,19.69,0,0,0-2.21-.2,4.87,4.87,0,0,0-4.21,2.4l-1.51,2.31-19.76,31v4.21q0,10.23.85,12.74c.57,1.68,2,2.51,4.27,2.51a17.87,17.87,0,0,0,2.46-.25,17.62,17.62,0,0,1,2.45-.25c2.08,0,3.11,1.07,3.11,3.21q0,3.61-4.51,3.61h-.6a2.81,2.81,0,0,0-.71-.1l-5.51-.7a47.5,47.5,0,0,0-6.12-.4,44.42,44.42,0,0,0-6.12.4l-5.12.7a2.6,2.6,0,0,0-.6.1h-.7q-4.51,0-4.52-3.51,0-3.31,3.21-3.31a15.73,15.73,0,0,1,2.36.25,15.73,15.73,0,0,0,2.36.25c2.81,0,4.51-1.78,5.12-5.33C391.21,57.36,391.25,54.41,391.25,49.11Z"/><path class="cls-1" d="M116.52,83.07a13.47,13.47,0,0,1,10.9,5.12V86.83a2.49,2.49,0,0,1-.12-.43c-.09-.9-.12-1.31-.12-1.23q0-2.1,1.86-2.1c1.33,0,2,.85,2,2.53,0,.32,0,1.29-.12,2.89-.24,2-.36,3.39-.36,4.15a26.6,26.6,0,0,0,.2,3.31l.28,2.29v.6c0,1.81-.72,2.71-2.17,2.71s-2.33-.85-2.29-2.56V96.84a8.85,8.85,0,0,0-2.7-7,10.26,10.26,0,0,0-7.38-2.68,10.9,10.9,0,0,0-9.31,4.57q-3.36,4.58-3.36,12.64,0,8.25,3.46,12.85a12.29,12.29,0,0,0,15.71,3,8.84,8.84,0,0,0,3.76-4.27,12.35,12.35,0,0,0,.73-4.7c0-1.84.76-2.77,2.28-2.77s2.47.93,2.47,2.77a13.66,13.66,0,0,1-4.45,10.54,16.32,16.32,0,0,1-11.5,4.09,16.14,16.14,0,0,1-13-5.72q-4.84-5.72-4.85-15.23,0-9.81,5-15.83A16.14,16.14,0,0,1,116.52,83.07Z"/><path class="cls-1" d="M154.14,125.87a15.42,15.42,0,0,1-12.67-5.78q-4.66-5.78-4.66-15.65t4.69-15.68q4.69-5.69,12.94-5.69A15.57,15.57,0,0,1,167,88.61q4.66,5.53,4.67,15,0,10.23-4.73,16.25A15.4,15.4,0,0,1,154.14,125.87Zm.12-38.46a10.4,10.4,0,0,0-9,4.45q-3.18,4.45-3.19,12.52t3.19,12.67a10.93,10.93,0,0,0,17.79-.18q3.28-4.66,3.28-12.67t-3.13-12.43A10.37,10.37,0,0,0,154.26,87.41Z"/><path class="cls-1" d="M182.79,107V92.4q0-4.45-3-4.45a3.4,3.4,0,0,0-1.2.17,6.26,6.26,0,0,1-1.55.25,1.73,1.73,0,0,1-1.32-.59,2.11,2.11,0,0,1-.53-1.45c0-1.45.84-2.17,2.53-2.17q.3,0,.9.06l4.15.42a51.92,51.92,0,0,0,5.24.24q1.56,0,6.74-.18l6.92-.24c.92,0,2-.1,3.25-.18a12.89,12.89,0,0,1,1.81-.12q3.19,0,3.19,2.83a27.53,27.53,0,0,1-.3,3.31,27.47,27.47,0,0,0-.3,3.37q0,1,.12,2.4c.08,1,.12,1.85.12,2.65,0,1.65-.72,2.47-2.17,2.47s-2.23-.94-2.23-2.81q0-.84.09-2.58t.09-2.58c0-2.11-.6-3.45-1.8-4s-4.06-.84-8.55-.84q-5.72,0-6.5,1c-.4.53-.6,2.37-.6,5.54v4.46q0,1.68.45,2.07a4.69,4.69,0,0,0,2.5.39h2q3.91,0,3.92-2.89a14.62,14.62,0,0,0-.15-1.8,14.57,14.57,0,0,1-.15-1.75c0-1.52.72-2.29,2.16-2.29s2.05.89,2.05,2.65c0,.24-.05.73-.14,1.45l-.42,3.25a27.05,27.05,0,0,0-.28,3.25,39.6,39.6,0,0,0,.63,6.26,14.73,14.73,0,0,1,.21,2.41c0,1.56-.72,2.34-2.17,2.34s-2-.84-2-2.52c0-.4,0-1,.09-1.81s.09-1.4.09-1.81c0-1.24-.35-2-1-2.4a5.91,5.91,0,0,0-2.77-.42h-1.86a4.34,4.34,0,0,0-2.59.47c-.32.32-.48,1.2-.48,2.63V116a7.77,7.77,0,0,0,.63,3.79,2.62,2.62,0,0,0,2.38,1h2.65c1.84,0,2.77.69,2.77,2a1.93,1.93,0,0,1-.64,1.44,2.1,2.1,0,0,1-1.53.61,19.4,19.4,0,0,1-2.83-.3,38.66,38.66,0,0,0-6-.43,30.83,30.83,0,0,0-4.63.37l-2,.3a1.76,1.76,0,0,0-.42.06h-.36c-1.77,0-2.65-.73-2.65-2.17a1.68,1.68,0,0,1,1.86-1.93c.16,0,.69,0,1.57.12a4.79,4.79,0,0,0,1.26.18,2.46,2.46,0,0,0,2.26-1,7.34,7.34,0,0,0,.69-3.52Z"/><path class="cls-1" d="M220.05,107V92.4q0-4.45-3.05-4.45a3.37,3.37,0,0,0-1.19.17,6.26,6.26,0,0,1-1.55.25,1.73,1.73,0,0,1-1.32-.59,2.06,2.06,0,0,1-.53-1.45c0-1.45.84-2.17,2.52-2.17.2,0,.51,0,.91.06l4.15.42a51.78,51.78,0,0,0,5.24.24q1.56,0,6.74-.18l6.92-.24c.92,0,2-.1,3.25-.18a12.79,12.79,0,0,1,1.81-.12c2.12,0,3.19.94,3.19,2.83a27.53,27.53,0,0,1-.3,3.31,25.59,25.59,0,0,0-.3,3.37c0,.64,0,1.44.12,2.4s.12,1.85.12,2.65c0,1.65-.73,2.47-2.17,2.47s-2.23-.94-2.23-2.81q0-.84.09-2.58t.09-2.58c0-2.11-.6-3.45-1.8-4s-4.06-.84-8.55-.84q-5.72,0-6.5,1c-.4.53-.6,2.37-.6,5.54v4.46q0,1.68.45,2.07a4.69,4.69,0,0,0,2.5.39h2q3.92,0,3.91-2.89a14.62,14.62,0,0,0-.15-1.8,14.57,14.57,0,0,1-.15-1.75c0-1.52.73-2.29,2.17-2.29s2.05.89,2.05,2.65c0,.24-.05.73-.14,1.45l-.42,3.25a27.55,27.55,0,0,0-.29,3.25,39.78,39.78,0,0,0,.64,6.26,14.73,14.73,0,0,1,.21,2.41c0,1.56-.73,2.34-2.17,2.34s-2-.84-2-2.52c0-.4,0-1,.09-1.81s.09-1.4.09-1.81q0-1.86-1-2.4a5.91,5.91,0,0,0-2.77-.42h-1.86a4.34,4.34,0,0,0-2.59.47c-.32.32-.48,1.2-.48,2.63V116a7.77,7.77,0,0,0,.63,3.79,2.62,2.62,0,0,0,2.38,1h2.64c1.85,0,2.77.69,2.77,2a1.92,1.92,0,0,1-.63,1.44,2.1,2.1,0,0,1-1.53.61,19.27,19.27,0,0,1-2.83-.3,38.76,38.76,0,0,0-6-.43,31,31,0,0,0-4.64.37l-2,.3a1.76,1.76,0,0,0-.42.06h-.37c-1.76,0-2.64-.73-2.64-2.17a1.68,1.68,0,0,1,1.86-1.93c.16,0,.68,0,1.57.12a4.79,4.79,0,0,0,1.26.18,2.48,2.48,0,0,0,2.26-1,7.34,7.34,0,0,0,.69-3.52Z"/><path class="cls-1" d="M257.49,92.4q0-4.45-3.07-4.45a5.06,5.06,0,0,0-1.27.12,9,9,0,0,1-1.62.18,1.75,1.75,0,0,1-1.32-.57,2,2,0,0,1-.55-1.42q0-2.1,2.52-2.1l.9.06q9,.6,8.4.6h.6l14.46-.42q.42,0,3.12-.18,1-.06,1.74-.06c2.08,0,3.12.92,3.12,2.77q0,.48-.18,3.06c-.08,1.29-.13,2.47-.13,3.56,0,1.4,0,2.38.1,3a23.83,23.83,0,0,1,.21,2.58c0,1.53-.72,2.29-2.14,2.29s-2.14-1.06-2.14-3.19V95.05q0-5.05-2.1-6-1.58-.66-8.07-.66a37.2,37.2,0,0,0-5.06.18,3.31,3.31,0,0,0-2.59,3.61v6c0,1.61.36,2.53,1.07,2.77a5.83,5.83,0,0,0,1.43.12h2.43q3.73,0,3.74-2.59a14.86,14.86,0,0,0-.15-1.86,16,16,0,0,1-.15-2.05c0-1.6.71-2.41,2.14-2.41s2.13.87,2.13,2.59c0,.32-.12,1.57-.38,3.73a40,40,0,0,0-.34,4.88c0,.8.08,2.23.24,4.27,0,.32.14,1,.3,2.11a16.39,16.39,0,0,1,.18,2.11,1.91,1.91,0,0,1-2.16,2.16c-1.41,0-2.11-.84-2.11-2.53a17.6,17.6,0,0,1,.15-1.92,17.74,17.74,0,0,0,.15-1.93c0-1.72-1.14-2.59-3.43-2.59H265c-1.16,0-1.87.2-2.13.61a5.31,5.31,0,0,0-.4,2.58V112c0,.64,0,1.5.07,2.58,0,1.33.06,2.21.06,2.65,0,1.61.36,2.61,1,3a7.1,7.1,0,0,0,3.13.42h8.18c2.37,0,4-.35,4.88-1s1.32-2,1.32-3.94c0-.6,0-1.5-.09-2.68s-.09-2.08-.09-2.68c0-1.81.72-2.71,2.14-2.71s2.26.93,2.26,2.77c0,.72,0,1.83-.09,3.31s-.09,2.59-.09,3.31c0,.56,0,1.4.09,2.5s.09,1.94.09,2.5c0,1.88-.93,2.83-2.77,2.83-.44,0-1.15,0-2.11-.12-.48,0-1.36-.06-2.65-.06l-4.69-.12q-5.11-.12-8.85-.12-5.66,0-11.07.36a2.8,2.8,0,0,0-.55.06h-.36c-1.68,0-2.53-.73-2.53-2.17a1.69,1.69,0,0,1,1.87-1.93q.3,0,1.62.12a4.92,4.92,0,0,0,1.27.18q3.08,0,3.07-4.51Z"/><path class="cls-1" d="M298,92.4c0-3-1-4.45-3.07-4.45a5,5,0,0,0-1.27.12,9,9,0,0,1-1.62.18,1.77,1.77,0,0,1-1.33-.57,2,2,0,0,1-.54-1.42q0-2.1,2.52-2.1l.9.06q9,.6,8.4.6h.6l14.46-.42c.28,0,1.32-.06,3.11-.18q1-.06,1.74-.06c2.08,0,3.12.92,3.12,2.77,0,.32,0,1.34-.17,3.06-.08,1.29-.13,2.47-.13,3.56,0,1.4,0,2.38.1,3a23.22,23.22,0,0,1,.2,2.58c0,1.53-.71,2.29-2.13,2.29s-2.14-1.06-2.14-3.19V95.05q0-5.05-2.11-6-1.56-.66-8.06-.66a37.2,37.2,0,0,0-5.06.18,3.31,3.31,0,0,0-2.59,3.61v6c0,1.61.36,2.53,1.07,2.77a5.83,5.83,0,0,0,1.43.12h2.43q3.74,0,3.74-2.59a14.86,14.86,0,0,0-.15-1.86,16,16,0,0,1-.15-2.05c0-1.6.71-2.41,2.14-2.41s2.13.87,2.13,2.59c0,.32-.13,1.57-.39,3.73a41.84,41.84,0,0,0-.33,4.88c0,.8.08,2.23.24,4.27,0,.32.14,1,.3,2.11a16.39,16.39,0,0,1,.18,2.11,1.91,1.91,0,0,1-2.16,2.16c-1.41,0-2.11-.84-2.11-2.53a17.6,17.6,0,0,1,.15-1.92,17.74,17.74,0,0,0,.15-1.93c0-1.72-1.14-2.59-3.43-2.59h-2.71c-1.16,0-1.88.2-2.14.61a5.47,5.47,0,0,0-.39,2.58V112q0,1,.06,2.58c0,1.33.06,2.21.06,2.65,0,1.61.36,2.61,1,3a7.1,7.1,0,0,0,3.13.42h8.18c2.37,0,4-.35,4.88-1s1.32-2,1.32-3.94c0-.6,0-1.5-.09-2.68s-.09-2.08-.09-2.68c0-1.81.71-2.71,2.14-2.71s2.26.93,2.26,2.77c0,.72,0,1.83-.09,3.31s-.09,2.59-.09,3.31c0,.56,0,1.4.09,2.5s.09,1.94.09,2.5c0,1.88-.93,2.83-2.77,2.83-.45,0-1.15,0-2.11-.12-.48,0-1.36-.06-2.65-.06l-4.69-.12q-5.11-.12-8.85-.12c-3.77,0-7.47.12-11.08.36a2.78,2.78,0,0,0-.54.06h-.36c-1.69,0-2.53-.73-2.53-2.17a1.68,1.68,0,0,1,1.87-1.93q.3,0,1.62.12a4.86,4.86,0,0,0,1.27.18c2,0,3.07-1.5,3.07-4.51Z"/></g></g></svg>